<svg width="185" height="19" viewBox="0 0 185 19" fill="none" xmlns="http://www.w3.org/2000/svg">
<g clip-path="url(#clip0_3_182)">
<path d="M18.2594 6.14781C17.5736 5.33255 16.3073 5 13.8891 5H5.11076C2.63714 5 1.34943 5.354 0.666165 6.22196C0 7.06823 0 8.31514 0 10.0409V13.3302C0 16.6735 0.7904 18.371 5.11076 18.371H13.8891C15.9862 18.371 17.1483 18.0776 17.9001 17.3581C18.6711 16.6203 19 15.4157 19 13.3302V10.0409C19 8.22094 18.9485 6.96668 18.2594 6.14781ZM12.1981 12.1396L8.21186 14.2229C8.12275 14.2695 8.02529 14.2926 7.92796 14.2926C7.81776 14.2926 7.70781 14.2629 7.61042 14.2039C7.42704 14.0928 7.31506 13.8941 7.31506 13.6797V9.52656C7.31506 9.31254 7.42673 9.11397 7.60975 9.00279C7.79282 8.89162 8.02051 8.88402 8.21045 8.98269L12.1967 11.0525C12.3995 11.1578 12.5268 11.3672 12.5271 11.5956C12.5274 11.8242 12.4006 12.0339 12.1981 12.1396Z" fill="#90A4B3"/>
</g>
<g clip-path="url(#clip1_3_182)">
<path d="M67.3652 0.0037452L65.0311 0C62.4087 0 60.714 1.73871 60.714 4.42982V6.47227H58.367C58.1642 6.47227 58 6.63668 58 6.83949V9.79876C58 10.0016 58.1644 10.1658 58.367 10.1658H60.714V17.633C60.714 17.8358 60.8782 18 61.081 18H64.1431C64.3459 18 64.5101 17.8356 64.5101 17.633V10.1658H67.2542C67.457 10.1658 67.6212 10.0016 67.6212 9.79876L67.6224 6.83949C67.6224 6.74211 67.5836 6.64886 67.5149 6.57994C67.4461 6.51103 67.3525 6.47227 67.2551 6.47227H64.5101V4.74086C64.5101 3.90868 64.7084 3.48622 65.7925 3.48622L67.3649 3.48566C67.5675 3.48566 67.7317 3.32124 67.7317 3.11863V0.370775C67.7317 0.168347 67.5677 0.00411972 67.3652 0.0037452Z" fill="#90A4B3"/>
</g>
<g clip-path="url(#clip2_3_182)">
<path d="M125.731 5.73609C125.023 6.04068 124.315 6.2309 123.607 6.3073C124.407 5.82762 124.947 5.14995 125.229 4.27435C124.498 4.70827 123.717 5.00514 122.888 5.16511C122.157 4.38848 121.258 4 120.192 4C119.172 4 118.302 4.35972 117.582 5.0793C116.863 5.79885 116.503 6.6687 116.503 7.68896C116.503 7.96302 116.533 8.24485 116.594 8.53416C115.087 8.45803 113.672 8.07924 112.351 7.39777C111.03 6.71622 109.909 5.80822 108.988 4.67375C108.653 5.24468 108.485 5.86534 108.485 6.53537C108.485 7.16735 108.634 7.75372 108.931 8.29434C109.228 8.83487 109.627 9.27263 110.13 9.6077C109.536 9.58482 108.98 9.42869 108.462 9.13934V9.18502C108.462 10.076 108.742 10.8582 109.302 11.5322C109.862 12.2062 110.568 12.6304 111.421 12.8056C111.101 12.8893 110.777 12.9312 110.45 12.9312C110.236 12.9312 110.004 12.9122 109.753 12.8744C109.989 13.6128 110.423 14.2198 111.055 14.696C111.687 15.1718 112.403 15.4171 113.202 15.4327C111.862 16.4833 110.336 17.0086 108.622 17.0086C108.295 17.0086 107.998 16.9937 107.731 16.9631C109.445 18.067 111.333 18.619 113.396 18.619C114.706 18.619 115.936 18.4117 117.085 17.9966C118.235 17.5818 119.217 17.0259 120.032 16.329C120.847 15.6324 121.549 14.831 122.139 13.9249C122.729 13.0188 123.169 12.0728 123.458 11.0868C123.748 10.1006 123.892 9.11286 123.892 8.12284C123.892 7.90962 123.889 7.7498 123.881 7.64315C124.604 7.11802 125.221 6.48212 125.731 5.73609Z" fill="#90A4B3"/>
</g>
<g clip-path="url(#clip3_3_182)">
<path d="M184.894 17.3053C184.87 17.2531 184.847 17.2098 184.826 17.1751C184.479 16.5502 183.816 15.7831 182.837 14.8736L182.817 14.8528L182.806 14.8426L182.796 14.8321H182.785C182.341 14.4086 182.06 14.1239 181.942 13.9781C181.726 13.7004 181.678 13.4193 181.796 13.1345C181.879 12.9193 182.192 12.4649 182.733 11.7706C183.018 11.4026 183.243 11.1077 183.41 10.8855C184.611 9.28871 185.132 8.26835 184.972 7.82401L184.91 7.72017C184.868 7.65766 184.761 7.60047 184.587 7.54831C184.413 7.49627 184.191 7.48766 183.921 7.52235L180.922 7.54306C180.873 7.52585 180.804 7.52745 180.713 7.54831C180.623 7.56918 180.578 7.57964 180.578 7.57964L180.526 7.60572L180.484 7.63705C180.45 7.65777 180.411 7.6942 180.37 7.74629C180.328 7.79819 180.294 7.8591 180.266 7.9285C179.939 8.7685 179.568 9.54949 179.151 10.2714C178.895 10.7019 178.659 11.075 178.443 11.3909C178.228 11.7067 178.048 11.9393 177.902 12.0884C177.756 12.2377 177.624 12.3573 177.506 12.4477C177.388 12.5381 177.298 12.5762 177.236 12.5623C177.173 12.5483 177.114 12.5344 177.058 12.5206C176.961 12.4581 176.883 12.3731 176.824 12.2655C176.765 12.1579 176.725 12.0224 176.704 11.8593C176.684 11.696 176.671 11.5556 176.668 11.4376C176.665 11.3197 176.666 11.1529 176.673 10.9377C176.68 10.7224 176.684 10.5767 176.684 10.5003C176.684 10.2365 176.689 9.95014 176.699 9.64122C176.71 9.33229 176.718 9.08753 176.725 8.90721C176.732 8.7267 176.736 8.53574 176.736 8.33441C176.736 8.13308 176.723 7.97519 176.699 7.86059C176.675 7.74614 176.639 7.63505 176.59 7.52734C176.541 7.41975 176.47 7.33652 176.377 7.27743C176.283 7.21842 176.166 7.17159 176.028 7.13679C175.66 7.05353 175.191 7.00848 174.622 7.00148C173.331 6.98762 172.501 7.071 172.133 7.2515C171.987 7.32776 171.855 7.43197 171.737 7.56378C171.612 7.71656 171.595 7.79994 171.685 7.81365C172.102 7.87606 172.397 8.02534 172.57 8.26135L172.633 8.38642C172.682 8.47665 172.73 8.6364 172.779 8.86545C172.827 9.09449 172.859 9.34787 172.872 9.62542C172.907 10.1323 172.907 10.5662 172.872 10.9271C172.838 11.2882 172.805 11.5693 172.773 11.7706C172.742 11.9719 172.695 12.1351 172.633 12.26C172.57 12.3849 172.529 12.4613 172.508 12.489C172.487 12.5167 172.47 12.5342 172.456 12.5411C172.366 12.5757 172.272 12.5933 172.175 12.5933C172.077 12.5933 171.959 12.5446 171.821 12.4474C171.682 12.3501 171.538 12.2166 171.389 12.0465C171.239 11.8763 171.071 11.6386 170.883 11.3331C170.696 11.0277 170.502 10.6667 170.3 10.2502L170.134 9.94817C170.03 9.75384 169.887 9.47089 169.707 9.09956C169.526 8.72809 169.367 8.36876 169.228 8.02165C169.172 7.87587 169.089 7.76489 168.978 7.68852L168.926 7.65719C168.891 7.62947 168.836 7.60003 168.759 7.56867C168.683 7.53734 168.603 7.51487 168.52 7.50104L165.667 7.52176C165.375 7.52176 165.177 7.58781 165.073 7.71974L165.031 7.78214C165.011 7.8169 165 7.87241 165 7.94882C165 8.02519 165.021 8.11893 165.063 8.22991C165.479 9.20884 165.932 10.1529 166.421 11.0623C166.911 11.9717 167.336 12.7043 167.697 13.2593C168.058 13.8148 168.426 14.339 168.801 14.8317C169.176 15.3247 169.424 15.6405 169.545 15.7793C169.667 15.9184 169.762 16.0223 169.832 16.0917L170.092 16.3416C170.259 16.5082 170.503 16.7078 170.826 16.9403C171.149 17.173 171.506 17.402 171.899 17.6278C172.291 17.8533 172.747 18.0372 173.268 18.1795C173.789 18.3219 174.295 18.3791 174.788 18.3515H175.986C176.229 18.3305 176.413 18.2542 176.538 18.1224L176.579 18.0702C176.607 18.0287 176.633 17.9644 176.657 17.8777C176.682 17.791 176.694 17.6954 176.694 17.5914C176.687 17.2929 176.709 17.0239 176.761 16.7845C176.813 16.5451 176.872 16.3646 176.939 16.243C177.005 16.1215 177.079 16.0191 177.162 15.936C177.246 15.8527 177.305 15.8023 177.34 15.7849C177.374 15.7674 177.402 15.7556 177.423 15.7485C177.589 15.693 177.785 15.7467 178.011 15.91C178.237 16.0731 178.449 16.2746 178.646 16.514C178.844 16.7536 179.082 17.0225 179.36 17.3209C179.638 17.6195 179.88 17.8414 180.089 17.9874L180.297 18.1124C180.436 18.1957 180.616 18.2721 180.839 18.3415C181.06 18.4109 181.255 18.4283 181.421 18.3936L184.087 18.352C184.351 18.352 184.556 18.3083 184.701 18.2217C184.847 18.1349 184.934 18.0393 184.962 17.9354C184.99 17.8313 184.991 17.7132 184.967 17.5811C184.942 17.4494 184.918 17.3573 184.894 17.3053Z" fill="#90A4B3"/>
</g>
<defs>
<clipPath id="clip0_3_182">
<rect width="19" height="14" fill="white" transform="translate(0 5)"/>
</clipPath>
<clipPath id="clip1_3_182">
<rect width="10" height="18" fill="white" transform="translate(58)"/>
</clipPath>
<clipPath id="clip2_3_182">
<rect width="19" height="15" fill="white" transform="translate(107 4)"/>
</clipPath>
<clipPath id="clip3_3_182">
<rect width="20" height="12" fill="white" transform="translate(165 7)"/>
</clipPath>
</defs>
</svg>
